<mxfile host="app.diagrams.net" modified="2022-12-26T02:35:04.417Z" agent="5.0 (Windows NT 10.0; Win64; x64) AppleWebKit/537.36 (KHTML, like Gecko) Chrome/108.0.0.0 Safari/537.36" etag="367EFwSQ1PAazP8yDZCi" version="20.6.2" type="github">
  <diagram name="Page-1" id="58cdce13-f638-feb5-8d6f-7d28b1aa9fa0">
    <mxGraphModel dx="2595" dy="1448" grid="1" gridSize="10" guides="1" tooltips="1" connect="1" arrows="1" fold="1" page="1" pageScale="1" pageWidth="1100" pageHeight="850" background="none" math="0" shadow="0">
      <root>
        <mxCell id="0" />
        <mxCell id="1" parent="0" />
        <mxCell id="SUXEZbgYKyHz7WRzrGh1-13" value="protocol_cmd" style="swimlane;fontStyle=1;align=center;verticalAlign=middle;childLayout=stackLayout;horizontal=1;startSize=30;horizontalStack=0;resizeParent=0;resizeLast=1;container=0;collapsible=0;rounded=1;arcSize=30;swimlaneFillColor=#FFFFFF;dropTarget=0;fontSize=12;" vertex="1" parent="1">
          <mxGeometry x="320" y="160" width="630" height="1490" as="geometry" />
        </mxCell>
        <mxCell id="SUXEZbgYKyHz7WRzrGh1-1" value="" style="ellipse;html=1;shape=startState;fillColor=#000000;strokeColor=#ff0000;" vertex="1" parent="1">
          <mxGeometry x="130" y="281" width="30" height="30" as="geometry" />
        </mxCell>
        <mxCell id="SUXEZbgYKyHz7WRzrGh1-2" value="" style="edgeStyle=orthogonalEdgeStyle;html=1;verticalAlign=bottom;endArrow=open;endSize=8;strokeColor=#ff0000;rounded=0;" edge="1" source="SUXEZbgYKyHz7WRzrGh1-1" parent="1">
          <mxGeometry relative="1" as="geometry">
            <mxPoint x="360" y="296" as="targetPoint" />
          </mxGeometry>
        </mxCell>
        <mxCell id="SUXEZbgYKyHz7WRzrGh1-3" value="UART (AP -&amp;gt; MCU)" style="text;html=1;strokeColor=none;fillColor=none;align=center;verticalAlign=middle;whiteSpace=wrap;rounded=0;" vertex="1" parent="1">
          <mxGeometry x="190" y="260" width="120" height="30" as="geometry" />
        </mxCell>
        <mxCell id="SUXEZbgYKyHz7WRzrGh1-4" value="TUNE UPDNKEY&lt;br&gt;cmd = 0x20" style="rounded=1;whiteSpace=wrap;html=1;" vertex="1" parent="1">
          <mxGeometry x="360" y="266" width="120" height="60" as="geometry" />
        </mxCell>
        <mxCell id="SUXEZbgYKyHz7WRzrGh1-5" value="" style="edgeStyle=orthogonalEdgeStyle;html=1;verticalAlign=bottom;endArrow=open;endSize=8;strokeColor=#ff0000;rounded=0;entryX=-0.011;entryY=0.537;entryDx=0;entryDy=0;entryPerimeter=0;" edge="1" parent="1" target="SUXEZbgYKyHz7WRzrGh1-6">
          <mxGeometry relative="1" as="geometry">
            <mxPoint x="570" y="295" as="targetPoint" />
            <mxPoint x="480" y="295.40999999999985" as="sourcePoint" />
            <Array as="points">
              <mxPoint x="550" y="295" />
            </Array>
          </mxGeometry>
        </mxCell>
        <mxCell id="SUXEZbgYKyHz7WRzrGh1-6" value="data = 0x01&lt;br&gt;(tune up)" style="rounded=1;whiteSpace=wrap;html=1;" vertex="1" parent="1">
          <mxGeometry x="580" y="277" width="100" height="34" as="geometry" />
        </mxCell>
        <mxCell id="SUXEZbgYKyHz7WRzrGh1-7" value="data = 0x02&lt;br&gt;(tune down)" style="rounded=1;whiteSpace=wrap;html=1;" vertex="1" parent="1">
          <mxGeometry x="580" y="326" width="100" height="34" as="geometry" />
        </mxCell>
        <mxCell id="SUXEZbgYKyHz7WRzrGh1-8" value="" style="edgeStyle=orthogonalEdgeStyle;html=1;verticalAlign=bottom;endArrow=open;endSize=8;strokeColor=#ff0000;rounded=0;" edge="1" parent="1">
          <mxGeometry relative="1" as="geometry">
            <mxPoint x="770" y="295" as="targetPoint" />
            <mxPoint x="680" y="295.40999999999985" as="sourcePoint" />
            <Array as="points">
              <mxPoint x="750" y="295" />
              <mxPoint x="820" y="295" />
            </Array>
          </mxGeometry>
        </mxCell>
        <mxCell id="SUXEZbgYKyHz7WRzrGh1-9" value="&lt;font style=&quot;font-size: 12px;&quot;&gt;KeyCode = 11&lt;br&gt;(&lt;span style=&quot;font-family: Arial; text-align: left; background-color: rgb(255, 255, 255);&quot;&gt;P_AD_TUNEUP&lt;/span&gt;)&lt;/font&gt;" style="rounded=1;whiteSpace=wrap;html=1;" vertex="1" parent="1">
          <mxGeometry x="772" y="277" width="120" height="43" as="geometry" />
        </mxCell>
        <mxCell id="SUXEZbgYKyHz7WRzrGh1-10" value="" style="edgeStyle=orthogonalEdgeStyle;html=1;verticalAlign=bottom;endArrow=open;endSize=8;strokeColor=#ff0000;rounded=0;" edge="1" parent="1">
          <mxGeometry relative="1" as="geometry">
            <mxPoint x="770" y="344" as="targetPoint" />
            <mxPoint x="680" y="344.40999999999985" as="sourcePoint" />
            <Array as="points">
              <mxPoint x="750" y="344" />
              <mxPoint x="820" y="344" />
            </Array>
          </mxGeometry>
        </mxCell>
        <mxCell id="SUXEZbgYKyHz7WRzrGh1-11" value="&lt;font style=&quot;font-size: 12px;&quot;&gt;KeyCode = 12&lt;br&gt;(&lt;span style=&quot;font-family: Arial; text-align: left; background-color: rgb(255, 255, 255);&quot;&gt;P_AD_TUNEDN&lt;/span&gt;)&lt;/font&gt;" style="rounded=1;whiteSpace=wrap;html=1;" vertex="1" parent="1">
          <mxGeometry x="772" y="326" width="120" height="43" as="geometry" />
        </mxCell>
        <mxCell id="SUXEZbgYKyHz7WRzrGh1-12" value="" style="edgeStyle=orthogonalEdgeStyle;html=1;verticalAlign=bottom;endArrow=open;endSize=8;strokeColor=#ff0000;rounded=0;exitX=1;exitY=0.5;exitDx=0;exitDy=0;entryX=0;entryY=0.5;entryDx=0;entryDy=0;" edge="1" parent="1" source="SUXEZbgYKyHz7WRzrGh1-4" target="SUXEZbgYKyHz7WRzrGh1-7">
          <mxGeometry relative="1" as="geometry">
            <mxPoint x="580" y="305" as="targetPoint" />
            <mxPoint x="490" y="305.40999999999985" as="sourcePoint" />
            <Array as="points">
              <mxPoint x="520" y="296" />
              <mxPoint x="520" y="343" />
            </Array>
          </mxGeometry>
        </mxCell>
        <mxCell id="SUXEZbgYKyHz7WRzrGh1-16" value="RadioKey()" style="swimlane;fontStyle=1;align=center;verticalAlign=middle;childLayout=stackLayout;horizontal=1;startSize=30;horizontalStack=0;resizeParent=0;resizeLast=1;container=0;collapsible=0;rounded=1;arcSize=30;swimlaneFillColor=#FFFFFF;dropTarget=0;fontSize=12;" vertex="1" parent="1">
          <mxGeometry x="988" y="160" width="940" height="1480" as="geometry" />
        </mxCell>
        <mxCell id="SUXEZbgYKyHz7WRzrGh1-18" value="0x11 &amp;lt;= WorkMode &amp;lt;= 0x19" style="rounded=1;whiteSpace=wrap;html=1;" vertex="1" parent="1">
          <mxGeometry x="1050" y="277" width="190" height="43" as="geometry" />
        </mxCell>
        <mxCell id="SUXEZbgYKyHz7WRzrGh1-19" value="" style="edgeStyle=orthogonalEdgeStyle;html=1;verticalAlign=bottom;endArrow=open;endSize=8;strokeColor=#ff0000;rounded=0;entryX=0;entryY=0.5;entryDx=0;entryDy=0;" edge="1" parent="1" target="SUXEZbgYKyHz7WRzrGh1-20">
          <mxGeometry relative="1" as="geometry">
            <mxPoint x="360" y="420" as="targetPoint" />
            <mxPoint x="160" y="300" as="sourcePoint" />
            <Array as="points">
              <mxPoint x="240" y="300" />
              <mxPoint x="240" y="730" />
            </Array>
          </mxGeometry>
        </mxCell>
        <mxCell id="SUXEZbgYKyHz7WRzrGh1-20" value="&lt;span style=&quot;font-family: Arial; text-align: left; background-color: rgb(255, 255, 255);&quot;&gt;SEEKUPKEY&lt;/span&gt;&lt;br&gt;cmd = 0x21" style="rounded=1;whiteSpace=wrap;html=1;" vertex="1" parent="1">
          <mxGeometry x="360" y="700" width="120" height="60" as="geometry" />
        </mxCell>
        <mxCell id="SUXEZbgYKyHz7WRzrGh1-23" value="" style="edgeStyle=orthogonalEdgeStyle;html=1;verticalAlign=bottom;endArrow=open;endSize=8;strokeColor=#ff0000;rounded=0;entryX=0;entryY=0.5;entryDx=0;entryDy=0;" edge="1" parent="1" target="SUXEZbgYKyHz7WRzrGh1-24">
          <mxGeometry relative="1" as="geometry">
            <mxPoint x="360" y="500" as="targetPoint" />
            <mxPoint x="160" y="300" as="sourcePoint" />
            <Array as="points">
              <mxPoint x="240" y="300" />
              <mxPoint x="240" y="810" />
            </Array>
          </mxGeometry>
        </mxCell>
        <mxCell id="SUXEZbgYKyHz7WRzrGh1-24" value="&lt;span style=&quot;font-family: Arial; text-align: left; background-color: rgb(255, 255, 255);&quot;&gt;SEEKDNKEY&lt;/span&gt;&lt;br&gt;cmd = 0x22" style="rounded=1;whiteSpace=wrap;html=1;" vertex="1" parent="1">
          <mxGeometry x="360" y="780" width="120" height="60" as="geometry" />
        </mxCell>
        <mxCell id="SUXEZbgYKyHz7WRzrGh1-25" value="" style="edgeStyle=orthogonalEdgeStyle;html=1;verticalAlign=bottom;endArrow=open;endSize=8;strokeColor=#ff0000;rounded=0;exitX=1;exitY=0.5;exitDx=0;exitDy=0;" edge="1" parent="1" source="SUXEZbgYKyHz7WRzrGh1-20">
          <mxGeometry relative="1" as="geometry">
            <mxPoint x="770" y="728" as="targetPoint" />
            <mxPoint x="680" y="728.4099999999999" as="sourcePoint" />
            <Array as="points">
              <mxPoint x="480" y="728" />
            </Array>
          </mxGeometry>
        </mxCell>
        <mxCell id="SUXEZbgYKyHz7WRzrGh1-26" value="&lt;font style=&quot;font-size: 12px;&quot;&gt;KeyCode = 86&lt;br&gt;(&lt;span style=&quot;font-family: Arial; text-align: left; background-color: rgb(255, 255, 255);&quot;&gt;S_AD_SEEKUP&lt;/span&gt;)&lt;/font&gt;" style="rounded=1;whiteSpace=wrap;html=1;" vertex="1" parent="1">
          <mxGeometry x="772" y="710" width="120" height="43" as="geometry" />
        </mxCell>
        <mxCell id="SUXEZbgYKyHz7WRzrGh1-27" value="" style="edgeStyle=orthogonalEdgeStyle;html=1;verticalAlign=bottom;endArrow=open;endSize=8;strokeColor=#ff0000;rounded=0;exitX=1;exitY=0.5;exitDx=0;exitDy=0;" edge="1" parent="1" source="SUXEZbgYKyHz7WRzrGh1-24">
          <mxGeometry relative="1" as="geometry">
            <mxPoint x="770" y="803" as="targetPoint" />
            <mxPoint x="680" y="803.4099999999999" as="sourcePoint" />
            <Array as="points">
              <mxPoint x="480" y="803" />
            </Array>
          </mxGeometry>
        </mxCell>
        <mxCell id="SUXEZbgYKyHz7WRzrGh1-28" value="&lt;font style=&quot;font-size: 12px;&quot;&gt;KeyCode = 87&lt;br&gt;(&lt;span style=&quot;font-family: Arial; text-align: left; background-color: rgb(255, 255, 255);&quot;&gt;S_AD_SEEKDN&lt;/span&gt;)&lt;/font&gt;" style="rounded=1;whiteSpace=wrap;html=1;" vertex="1" parent="1">
          <mxGeometry x="772" y="785" width="120" height="43" as="geometry" />
        </mxCell>
        <mxCell id="SUXEZbgYKyHz7WRzrGh1-30" value="" style="edgeStyle=orthogonalEdgeStyle;html=1;verticalAlign=bottom;endArrow=open;endSize=8;strokeColor=#ff0000;rounded=0;exitX=1;exitY=0.5;exitDx=0;exitDy=0;" edge="1" parent="1" source="SUXEZbgYKyHz7WRzrGh1-11">
          <mxGeometry relative="1" as="geometry">
            <mxPoint x="1050" y="295.8" as="targetPoint" />
            <mxPoint x="892" y="296.20999999999987" as="sourcePoint" />
            <Array as="points">
              <mxPoint x="970" y="348" />
              <mxPoint x="970" y="296" />
            </Array>
          </mxGeometry>
        </mxCell>
        <mxCell id="SUXEZbgYKyHz7WRzrGh1-31" value="" style="edgeStyle=orthogonalEdgeStyle;html=1;verticalAlign=bottom;endArrow=open;endSize=8;strokeColor=#ff0000;rounded=0;" edge="1" parent="1">
          <mxGeometry relative="1" as="geometry">
            <mxPoint x="1050" y="727.5" as="targetPoint" />
            <mxPoint x="892" y="727.9099999999999" as="sourcePoint" />
            <Array as="points">
              <mxPoint x="962" y="727.5" />
              <mxPoint x="1040" y="727.5" />
            </Array>
          </mxGeometry>
        </mxCell>
        <mxCell id="SUXEZbgYKyHz7WRzrGh1-32" value="" style="rounded=1;whiteSpace=wrap;html=1;" vertex="1" parent="1">
          <mxGeometry x="1050" y="709.5" width="120" height="43" as="geometry" />
        </mxCell>
        <mxCell id="SUXEZbgYKyHz7WRzrGh1-33" value="" style="edgeStyle=orthogonalEdgeStyle;html=1;verticalAlign=bottom;endArrow=open;endSize=8;strokeColor=#ff0000;rounded=0;exitX=0.999;exitY=0.58;exitDx=0;exitDy=0;exitPerimeter=0;" edge="1" parent="1" source="SUXEZbgYKyHz7WRzrGh1-28">
          <mxGeometry relative="1" as="geometry">
            <mxPoint x="1050" y="728.3" as="targetPoint" />
            <mxPoint x="892" y="780" as="sourcePoint" />
            <Array as="points">
              <mxPoint x="970" y="810" />
              <mxPoint x="970" y="728" />
            </Array>
          </mxGeometry>
        </mxCell>
        <mxCell id="SUXEZbgYKyHz7WRzrGh1-34" value="" style="edgeStyle=orthogonalEdgeStyle;html=1;verticalAlign=bottom;endArrow=open;endSize=8;strokeColor=#ff0000;rounded=0;entryX=0;entryY=0.5;entryDx=0;entryDy=0;" edge="1" parent="1" target="SUXEZbgYKyHz7WRzrGh1-35">
          <mxGeometry relative="1" as="geometry">
            <mxPoint x="360" y="615" as="targetPoint" />
            <mxPoint x="160" y="300" as="sourcePoint" />
            <Array as="points">
              <mxPoint x="240" y="300" />
              <mxPoint x="240" y="1140" />
            </Array>
          </mxGeometry>
        </mxCell>
        <mxCell id="SUXEZbgYKyHz7WRzrGh1-35" value="&lt;span style=&quot;font-family: Arial; text-align: left; background-color: rgb(255, 255, 255);&quot;&gt;SSMKEY&lt;/span&gt;&lt;br&gt;cmd = 0x25" style="rounded=1;whiteSpace=wrap;html=1;" vertex="1" parent="1">
          <mxGeometry x="360" y="1110" width="120" height="60" as="geometry" />
        </mxCell>
        <mxCell id="SUXEZbgYKyHz7WRzrGh1-36" value="" style="edgeStyle=orthogonalEdgeStyle;html=1;verticalAlign=bottom;endArrow=open;endSize=8;strokeColor=#ff0000;rounded=0;exitX=1;exitY=0.5;exitDx=0;exitDy=0;" edge="1" parent="1">
          <mxGeometry relative="1" as="geometry">
            <mxPoint x="770" y="1145" as="targetPoint" />
            <mxPoint x="480" y="1152" as="sourcePoint" />
            <Array as="points">
              <mxPoint x="480" y="1145" />
            </Array>
          </mxGeometry>
        </mxCell>
        <mxCell id="SUXEZbgYKyHz7WRzrGh1-37" value="&lt;font style=&quot;font-size: 12px;&quot;&gt;KeyCode = 92&lt;br&gt;(&lt;span style=&quot;font-family: Arial; text-align: left; background-color: rgb(255, 255, 255);&quot;&gt;S_AD_BSM&lt;/span&gt;)&lt;/font&gt;" style="rounded=1;whiteSpace=wrap;html=1;" vertex="1" parent="1">
          <mxGeometry x="772" y="1127" width="120" height="43" as="geometry" />
        </mxCell>
        <mxCell id="SUXEZbgYKyHz7WRzrGh1-38" value="" style="edgeStyle=orthogonalEdgeStyle;html=1;verticalAlign=bottom;endArrow=open;endSize=8;strokeColor=#ff0000;rounded=0;" edge="1" parent="1">
          <mxGeometry relative="1" as="geometry">
            <mxPoint x="1050" y="1145" as="targetPoint" />
            <mxPoint x="892" y="1145.4099999999999" as="sourcePoint" />
            <Array as="points">
              <mxPoint x="962" y="1145" />
              <mxPoint x="1040" y="1145" />
            </Array>
          </mxGeometry>
        </mxCell>
        <mxCell id="SUXEZbgYKyHz7WRzrGh1-39" value="" style="rounded=1;whiteSpace=wrap;html=1;" vertex="1" parent="1">
          <mxGeometry x="1050" y="1127" width="120" height="43" as="geometry" />
        </mxCell>
        <mxCell id="SUXEZbgYKyHz7WRzrGh1-40" value="" style="edgeStyle=orthogonalEdgeStyle;html=1;verticalAlign=bottom;endArrow=open;endSize=8;strokeColor=#ff0000;rounded=0;entryX=0;entryY=0.5;entryDx=0;entryDy=0;" edge="1" parent="1" target="SUXEZbgYKyHz7WRzrGh1-41">
          <mxGeometry relative="1" as="geometry">
            <mxPoint x="360" y="705" as="targetPoint" />
            <mxPoint x="160" y="300" as="sourcePoint" />
            <Array as="points">
              <mxPoint x="240" y="300" />
              <mxPoint x="240" y="1230" />
            </Array>
          </mxGeometry>
        </mxCell>
        <mxCell id="SUXEZbgYKyHz7WRzrGh1-41" value="&lt;span style=&quot;font-family: Arial; text-align: left; background-color: rgb(255, 255, 255);&quot;&gt;PSCANKEY&lt;/span&gt;&lt;br&gt;cmd = 0x29" style="rounded=1;whiteSpace=wrap;html=1;" vertex="1" parent="1">
          <mxGeometry x="360" y="1200" width="120" height="60" as="geometry" />
        </mxCell>
        <mxCell id="SUXEZbgYKyHz7WRzrGh1-42" value="" style="edgeStyle=orthogonalEdgeStyle;html=1;verticalAlign=bottom;endArrow=open;endSize=8;strokeColor=#ff0000;rounded=0;exitX=1;exitY=0.5;exitDx=0;exitDy=0;" edge="1" parent="1">
          <mxGeometry relative="1" as="geometry">
            <mxPoint x="770" y="1235" as="targetPoint" />
            <mxPoint x="480" y="1242" as="sourcePoint" />
            <Array as="points">
              <mxPoint x="480" y="1235" />
            </Array>
          </mxGeometry>
        </mxCell>
        <mxCell id="SUXEZbgYKyHz7WRzrGh1-43" value="&lt;font style=&quot;font-size: 12px;&quot;&gt;KeyCode = 93&lt;br&gt;(&lt;span style=&quot;font-family: Arial; text-align: left; background-color: rgb(255, 255, 255);&quot;&gt;S_AD_SCAN&lt;/span&gt;)&lt;/font&gt;" style="rounded=1;whiteSpace=wrap;html=1;" vertex="1" parent="1">
          <mxGeometry x="772" y="1217" width="120" height="43" as="geometry" />
        </mxCell>
        <mxCell id="SUXEZbgYKyHz7WRzrGh1-44" value="" style="edgeStyle=orthogonalEdgeStyle;html=1;verticalAlign=bottom;endArrow=open;endSize=8;strokeColor=#ff0000;rounded=0;" edge="1" parent="1">
          <mxGeometry relative="1" as="geometry">
            <mxPoint x="1050" y="1235" as="targetPoint" />
            <mxPoint x="892" y="1235.4099999999996" as="sourcePoint" />
            <Array as="points">
              <mxPoint x="962" y="1235" />
              <mxPoint x="1040" y="1235" />
            </Array>
          </mxGeometry>
        </mxCell>
        <mxCell id="SUXEZbgYKyHz7WRzrGh1-45" value="" style="rounded=1;whiteSpace=wrap;html=1;" vertex="1" parent="1">
          <mxGeometry x="1050" y="1217" width="120" height="43" as="geometry" />
        </mxCell>
        <mxCell id="SUXEZbgYKyHz7WRzrGh1-47" value="0x25 &amp;lt;= WorkMode &amp;lt;= 0x2A" style="rounded=1;whiteSpace=wrap;html=1;" vertex="1" parent="1">
          <mxGeometry x="1050" y="340" width="190" height="43" as="geometry" />
        </mxCell>
        <mxCell id="SUXEZbgYKyHz7WRzrGh1-48" value="" style="edgeStyle=orthogonalEdgeStyle;html=1;verticalAlign=bottom;endArrow=open;endSize=8;strokeColor=#ff0000;rounded=0;entryX=0;entryY=0.5;entryDx=0;entryDy=0;" edge="1" parent="1" target="SUXEZbgYKyHz7WRzrGh1-47">
          <mxGeometry relative="1" as="geometry">
            <mxPoint x="1050" y="295.76" as="targetPoint" />
            <mxPoint x="892" y="296.16999999999985" as="sourcePoint" />
            <Array as="points">
              <mxPoint x="970" y="296" />
              <mxPoint x="970" y="362" />
            </Array>
          </mxGeometry>
        </mxCell>
        <mxCell id="SUXEZbgYKyHz7WRzrGh1-49" value="0x21 &amp;lt;= WorkMode &amp;lt;= 0x22" style="rounded=1;whiteSpace=wrap;html=1;" vertex="1" parent="1">
          <mxGeometry x="1050" y="400" width="190" height="43" as="geometry" />
        </mxCell>
        <mxCell id="SUXEZbgYKyHz7WRzrGh1-52" value="" style="edgeStyle=orthogonalEdgeStyle;html=1;verticalAlign=bottom;endArrow=open;endSize=8;strokeColor=#ff0000;rounded=0;entryX=0;entryY=0.5;entryDx=0;entryDy=0;" edge="1" parent="1" target="SUXEZbgYKyHz7WRzrGh1-49">
          <mxGeometry relative="1" as="geometry">
            <mxPoint x="1050" y="295.8" as="targetPoint" />
            <mxPoint x="892" y="296.20999999999987" as="sourcePoint" />
            <Array as="points">
              <mxPoint x="970" y="296" />
              <mxPoint x="970" y="422" />
            </Array>
          </mxGeometry>
        </mxCell>
        <mxCell id="SUXEZbgYKyHz7WRzrGh1-53" value="" style="edgeStyle=orthogonalEdgeStyle;html=1;verticalAlign=bottom;endArrow=open;endSize=8;strokeColor=#ff0000;rounded=0;" edge="1" parent="1">
          <mxGeometry relative="1" as="geometry">
            <mxPoint x="1398" y="299" as="targetPoint" />
            <mxPoint x="1240" y="299.40999999999985" as="sourcePoint" />
            <Array as="points">
              <mxPoint x="1310" y="299" />
              <mxPoint x="1388" y="299" />
            </Array>
          </mxGeometry>
        </mxCell>
        <mxCell id="SUXEZbgYKyHz7WRzrGh1-54" value="WorkMode = 0x1B" style="rounded=1;whiteSpace=wrap;html=1;" vertex="1" parent="1">
          <mxGeometry x="1398" y="281" width="120" height="43" as="geometry" />
        </mxCell>
        <mxCell id="SUXEZbgYKyHz7WRzrGh1-55" value="" style="edgeStyle=orthogonalEdgeStyle;html=1;verticalAlign=bottom;endArrow=open;endSize=8;strokeColor=#ff0000;rounded=0;entryX=-0.003;entryY=0.419;entryDx=0;entryDy=0;entryPerimeter=0;" edge="1" parent="1" target="SUXEZbgYKyHz7WRzrGh1-56">
          <mxGeometry relative="1" as="geometry">
            <mxPoint x="1398" y="358" as="targetPoint" />
            <mxPoint x="1240" y="358.40999999999985" as="sourcePoint" />
            <Array as="points">
              <mxPoint x="1310" y="358" />
            </Array>
          </mxGeometry>
        </mxCell>
        <mxCell id="SUXEZbgYKyHz7WRzrGh1-56" value="WorkMode = 0x24" style="rounded=1;whiteSpace=wrap;html=1;" vertex="1" parent="1">
          <mxGeometry x="1398" y="340" width="120" height="43" as="geometry" />
        </mxCell>
        <mxCell id="SUXEZbgYKyHz7WRzrGh1-57" value="" style="edgeStyle=orthogonalEdgeStyle;html=1;verticalAlign=bottom;endArrow=open;endSize=8;strokeColor=#ff0000;rounded=0;entryX=-0.009;entryY=0.419;entryDx=0;entryDy=0;entryPerimeter=0;" edge="1" parent="1" target="SUXEZbgYKyHz7WRzrGh1-56">
          <mxGeometry relative="1" as="geometry">
            <mxPoint x="1398" y="421" as="targetPoint" />
            <mxPoint x="1240" y="421.40999999999985" as="sourcePoint" />
            <Array as="points">
              <mxPoint x="1310" y="421" />
              <mxPoint x="1310" y="358" />
            </Array>
          </mxGeometry>
        </mxCell>
        <mxCell id="SUXEZbgYKyHz7WRzrGh1-58" value="위의 조건에 해당하지 않는 경우" style="rounded=1;whiteSpace=wrap;html=1;" vertex="1" parent="1">
          <mxGeometry x="1050" y="463.79" width="190" height="43" as="geometry" />
        </mxCell>
        <mxCell id="SUXEZbgYKyHz7WRzrGh1-59" value="" style="edgeStyle=orthogonalEdgeStyle;html=1;verticalAlign=bottom;endArrow=open;endSize=8;strokeColor=#ff0000;rounded=0;entryX=0;entryY=0.5;entryDx=0;entryDy=0;" edge="1" parent="1">
          <mxGeometry relative="1" as="geometry">
            <mxPoint x="1050" y="482.28999999999985" as="targetPoint" />
            <mxPoint x="892.0000000000002" y="356.99999999999983" as="sourcePoint" />
            <Array as="points">
              <mxPoint x="892" y="297" />
              <mxPoint x="970" y="297" />
              <mxPoint x="970" y="482" />
            </Array>
          </mxGeometry>
        </mxCell>
        <mxCell id="SUXEZbgYKyHz7WRzrGh1-60" value="" style="edgeStyle=orthogonalEdgeStyle;html=1;verticalAlign=bottom;endArrow=open;endSize=8;strokeColor=#ff0000;rounded=0;entryX=0;entryY=0.456;entryDx=0;entryDy=0;entryPerimeter=0;" edge="1" parent="1" target="SUXEZbgYKyHz7WRzrGh1-61">
          <mxGeometry relative="1" as="geometry">
            <mxPoint x="1398" y="488" as="targetPoint" />
            <mxPoint x="1240" y="488.40999999999985" as="sourcePoint" />
            <Array as="points" />
          </mxGeometry>
        </mxCell>
        <mxCell id="SUXEZbgYKyHz7WRzrGh1-61" value="&lt;span style=&quot;font-family: Arial; background-color: rgb(255, 255, 255);&quot;&gt;Frequency값 저장, radio mute, radio 구조체의 값들을 UART를 통해 전송 (MCU -&amp;gt; AP)&lt;/span&gt;" style="rounded=1;whiteSpace=wrap;html=1;align=left;spacing=15;spacingLeft=0;spacingBottom=0;spacingTop=0;" vertex="1" parent="1">
          <mxGeometry x="1340" y="458.5" width="360" height="67" as="geometry" />
        </mxCell>
        <mxCell id="SUXEZbgYKyHz7WRzrGh1-62" value="RadioWork()" style="swimlane;fontStyle=1;align=center;verticalAlign=middle;childLayout=stackLayout;horizontal=1;startSize=30;horizontalStack=0;resizeParent=0;resizeLast=1;container=0;collapsible=0;rounded=1;arcSize=30;swimlaneFillColor=#FFFFFF;dropTarget=0;fontSize=12;" vertex="1" parent="1">
          <mxGeometry x="2000" y="160" width="940" height="1490" as="geometry" />
        </mxCell>
        <mxCell id="SUXEZbgYKyHz7WRzrGh1-63" value="" style="edgeStyle=orthogonalEdgeStyle;html=1;verticalAlign=bottom;endArrow=open;endSize=8;strokeColor=#ff0000;rounded=0;entryX=0.001;entryY=0.564;entryDx=0;entryDy=0;entryPerimeter=0;" edge="1" parent="1" target="SUXEZbgYKyHz7WRzrGh1-64">
          <mxGeometry relative="1" as="geometry">
            <mxPoint x="1676" y="301.0000000000001" as="targetPoint" />
            <mxPoint x="1518" y="301.40999999999985" as="sourcePoint" />
            <Array as="points">
              <mxPoint x="1588" y="301" />
            </Array>
          </mxGeometry>
        </mxCell>
        <mxCell id="SUXEZbgYKyHz7WRzrGh1-64" value="WorkMode = 0x00" style="rounded=1;whiteSpace=wrap;html=1;" vertex="1" parent="1">
          <mxGeometry x="2080" y="277" width="120" height="43" as="geometry" />
        </mxCell>
        <mxCell id="SUXEZbgYKyHz7WRzrGh1-65" value="" style="edgeStyle=orthogonalEdgeStyle;html=1;verticalAlign=bottom;endArrow=open;endSize=8;strokeColor=#ff0000;rounded=0;" edge="1" parent="1">
          <mxGeometry relative="1" as="geometry">
            <mxPoint x="2358" y="300.5" as="targetPoint" />
            <mxPoint x="2200" y="300.90999999999985" as="sourcePoint" />
            <Array as="points">
              <mxPoint x="2270" y="300.5" />
              <mxPoint x="2348" y="300.5" />
            </Array>
          </mxGeometry>
        </mxCell>
        <mxCell id="SUXEZbgYKyHz7WRzrGh1-66" value="&lt;span style=&quot;font-family: Arial; background-color: rgb(255, 255, 255);&quot;&gt;● Frequency등에 따라 AM 혹은 FM의 tune을 맞춤&lt;br&gt;● radio 구조체의 frequency 등의 data값을 SI479XX에 write (SPI 통신방식 이용), SPI 통신 RX 값을 가공하여 radio 구조체의 SNR, DEV 등의 값들에 저장&lt;br&gt;● 0dB로 맞춤 (radio mute off)&lt;br&gt;● radio 구조체의 band, status, frequency 등의 값들을 백업&lt;br&gt;(uart 통신을 통하여 MCU -&amp;gt; AP로 정보를 보냄)&lt;/span&gt;" style="rounded=1;whiteSpace=wrap;html=1;align=left;spacing=15;spacingLeft=0;spacingBottom=0;spacingTop=0;" vertex="1" parent="1">
          <mxGeometry x="2358" y="255.5" width="462" height="100" as="geometry" />
        </mxCell>
        <mxCell id="SUXEZbgYKyHz7WRzrGh1-67" value="" style="edgeStyle=orthogonalEdgeStyle;html=1;verticalAlign=bottom;endArrow=open;endSize=8;strokeColor=#ff0000;rounded=0;entryX=0.001;entryY=0.564;entryDx=0;entryDy=0;entryPerimeter=0;" edge="1" parent="1" target="SUXEZbgYKyHz7WRzrGh1-68">
          <mxGeometry relative="1" as="geometry">
            <mxPoint x="1676" y="365.5000000000001" as="targetPoint" />
            <mxPoint x="1518" y="365.90999999999985" as="sourcePoint" />
            <Array as="points">
              <mxPoint x="1588" y="365.5" />
            </Array>
          </mxGeometry>
        </mxCell>
        <mxCell id="SUXEZbgYKyHz7WRzrGh1-68" value="WorkMode = 0x00" style="rounded=1;whiteSpace=wrap;html=1;" vertex="1" parent="1">
          <mxGeometry x="2080" y="341.5" width="120" height="43" as="geometry" />
        </mxCell>
        <mxCell id="SUXEZbgYKyHz7WRzrGh1-69" value="" style="edgeStyle=orthogonalEdgeStyle;html=1;verticalAlign=bottom;endArrow=open;endSize=8;strokeColor=#ff0000;rounded=0;entryX=0.003;entryY=0.598;entryDx=0;entryDy=0;entryPerimeter=0;" edge="1" parent="1" target="SUXEZbgYKyHz7WRzrGh1-70">
          <mxGeometry relative="1" as="geometry">
            <mxPoint x="2358" y="365" as="targetPoint" />
            <mxPoint x="2200" y="365.40999999999985" as="sourcePoint" />
            <Array as="points">
              <mxPoint x="2280" y="365" />
              <mxPoint x="2280" y="435" />
            </Array>
          </mxGeometry>
        </mxCell>
        <mxCell id="SUXEZbgYKyHz7WRzrGh1-70" value="&lt;span style=&quot;font-family: Arial; background-color: rgb(255, 255, 255);&quot;&gt;● Frequency등에 따라 AM 혹은 FM의 tune을 맞춤&lt;br&gt;● radio 구조체의 frequency 등의 data값을 SI479XX에 write (SPI 통신방식 이용), SPI 통신 RX 값을 가공하여 radio 구조체의 SNR, DEV 등의 값들에 저장&lt;br&gt;● radio 구조체의 band, status, frequency 등의 값들을 백업&lt;br&gt;(uart 통신을 통하여 MCU -&amp;gt; AP로 정보를 보냄)&lt;/span&gt;" style="rounded=1;whiteSpace=wrap;html=1;align=left;spacing=15;spacingLeft=0;spacingBottom=0;spacingTop=0;" vertex="1" parent="1">
          <mxGeometry x="2358" y="375" width="462" height="100" as="geometry" />
        </mxCell>
        <mxCell id="SUXEZbgYKyHz7WRzrGh1-71" value="" style="edgeStyle=orthogonalEdgeStyle;html=1;verticalAlign=bottom;endArrow=open;endSize=8;strokeColor=#ff0000;rounded=0;exitX=1;exitY=0.5;exitDx=0;exitDy=0;entryX=0;entryY=0.5;entryDx=0;entryDy=0;" edge="1" parent="1" target="SUXEZbgYKyHz7WRzrGh1-72" source="SUXEZbgYKyHz7WRzrGh1-61">
          <mxGeometry relative="1" as="geometry">
            <mxPoint x="1780" y="490" as="targetPoint" />
            <mxPoint x="1742" y="495.90999999999985" as="sourcePoint" />
            <Array as="points">
              <mxPoint x="1750" y="492" />
            </Array>
          </mxGeometry>
        </mxCell>
        <mxCell id="SUXEZbgYKyHz7WRzrGh1-72" value="WorkMode = 0x70" style="rounded=1;whiteSpace=wrap;html=1;" vertex="1" parent="1">
          <mxGeometry x="1772" y="471.5" width="120" height="43" as="geometry" />
        </mxCell>
        <mxCell id="SUXEZbgYKyHz7WRzrGh1-75" value="" style="edgeStyle=orthogonalEdgeStyle;html=1;verticalAlign=bottom;endArrow=open;endSize=8;strokeColor=#ff0000;rounded=0;entryX=0;entryY=0.584;entryDx=0;entryDy=0;entryPerimeter=0;exitX=0.998;exitY=0.39;exitDx=0;exitDy=0;exitPerimeter=0;" edge="1" parent="1" target="SUXEZbgYKyHz7WRzrGh1-76" source="SUXEZbgYKyHz7WRzrGh1-72">
          <mxGeometry relative="1" as="geometry">
            <mxPoint x="1676" y="488.5000000000001" as="targetPoint" />
            <mxPoint x="1910" y="440" as="sourcePoint" />
            <Array as="points">
              <mxPoint x="1892" y="490" />
              <mxPoint x="1950" y="490" />
            </Array>
          </mxGeometry>
        </mxCell>
        <mxCell id="SUXEZbgYKyHz7WRzrGh1-76" value="WorkMode = 0x00" style="rounded=1;whiteSpace=wrap;html=1;" vertex="1" parent="1">
          <mxGeometry x="2080" y="464.5" width="120" height="43" as="geometry" />
        </mxCell>
        <mxCell id="SUXEZbgYKyHz7WRzrGh1-77" value="" style="edgeStyle=orthogonalEdgeStyle;html=1;verticalAlign=bottom;endArrow=open;endSize=8;strokeColor=#ff0000;rounded=0;" edge="1" parent="1" target="SUXEZbgYKyHz7WRzrGh1-78">
          <mxGeometry relative="1" as="geometry">
            <mxPoint x="2330" y="570" as="targetPoint" />
            <mxPoint x="2200" y="488.40999999999985" as="sourcePoint" />
            <Array as="points">
              <mxPoint x="2270" y="488" />
              <mxPoint x="2270" y="540" />
            </Array>
          </mxGeometry>
        </mxCell>
        <mxCell id="SUXEZbgYKyHz7WRzrGh1-78" value="&lt;span style=&quot;font-family: Arial; background-color: rgb(255, 255, 255);&quot;&gt;radio 구조체의 값을 SI479XX에 write (SPI 통신방식 이용),&amp;nbsp;0dB로 맞춤 (radio mute off)&lt;/span&gt;" style="rounded=1;whiteSpace=wrap;html=1;align=left;spacing=15;spacingLeft=0;spacingBottom=0;spacingTop=0;" vertex="1" parent="1">
          <mxGeometry x="2358" y="506.79" width="312" height="63.21" as="geometry" />
        </mxCell>
      </root>
    </mxGraphModel>
  </diagram>
</mxfile>
